<?xml version="1.0" encoding="utf-8"?>
<!-- Generator: Adobe Illustrator 13.0.0, SVG Export Plug-In . SVG Version: 6.00 Build 14948)  -->
<!DOCTYPE svg PUBLIC "-//W3C//DTD SVG 1.1//EN" "http://www.w3.org/Graphics/SVG/1.1/DTD/svg11.dtd">
<svg version="1.1" id="Layer_1" xmlns="http://www.w3.org/2000/svg" xmlns:xlink="http://www.w3.org/1999/xlink" x="0px" y="0px"
	 width="45.93px" height="45.93px" viewBox="0 0 45.93 45.93" enable-background="new 0 0 45.93 45.93" xml:space="preserve">
<rect x="0" y="0" fill="none" width="45.93" height="45.93"/>
<path fill="#820000" d="M40.147,42.048c-0.347,0-0.678-0.043-1.001-0.12c-0.897-0.225-1.592-0.673-2.127-1.369
	c-0.483-0.699-0.693-1.014-0.777-1.183v0.05c0-0.004-0.058-0.094-0.074-0.118l-6.665-10.099l-0.554-0.976
	c-0.115-0.239-0.646-1.412-0.646-2.836c0-1.73,0.756-3.112,2.24-4.107l0.634-0.385c1.593-0.943,3.285-2.141,3.285-4.362
	c0-1.937-1.066-3.49-2.72-3.968c-0.123-0.032-0.213-0.148-0.213-0.277V4.115c0-0.08,0.032-0.159,0.1-0.214
	c0.048-0.05,0.124-0.078,0.197-0.078c0.004,0,0.015,0,0.018,0c3.403,0.251,6.396,1.611,8.435,3.833
	c1.778,1.933,2.787,4.703,2.787,7.601v0.347c0,4.145-2.028,8.058-5.433,10.457c0.187,0.383,2.805,4.636,3.993,6.3
	c0.79,1.098,1.409,1.964,1.566,2.214c0.849,1.15,1.238,2.546,1.239,3.414l-0.072,0.705c-0.201,1.124-0.769,1.97-1.722,2.611
	C41.934,41.776,41.029,42.048,40.147,42.048L40.147,42.048z"/>
<g>
	
		<linearGradient id="SVGID_1_" gradientUnits="userSpaceOnUse" x1="-137.9792" y1="-162.3308" x2="-113.5666" y2="-186.7433" gradientTransform="matrix(0.9563 0 0 -0.9563 157.4864 -144.2242)">
		<stop  offset="0" style="stop-color:#CF0800"/>
		<stop  offset="0.8901" style="stop-color:#8A0000"/>
	</linearGradient>
	<path fill="url(#SVGID_1_)" d="M40.147,41.461c-0.296,0-0.583-0.033-0.86-0.104c-0.766-0.19-1.354-0.57-1.804-1.155
		c0,0-0.665-0.98-0.745-1.09c-0.024-0.058-0.065-0.109-0.104-0.152l0.005,0.006l-6.66-10.092l-0.523-0.928
		c-0.088-0.185-0.563-1.254-0.563-2.548c0-1.522,0.664-2.744,1.977-3.623l0.612-0.37c1.243-0.736,3.567-2.12,3.567-4.863
		c0-2.121-1.146-3.844-2.936-4.463V4.436c3.165,0.295,5.832,1.542,7.729,3.613c1.682,1.825,2.637,4.453,2.637,7.206v0.347
		c0,3.954-1.938,7.687-5.189,9.979l-0.208,0.15c-0.115,0.083-0.153,0.241-0.096,0.371l0.122,0.229
		c0.189,0.379,2.425,4.11,4.042,6.371c0.75,1.045,1.402,1.95,1.551,2.188c0.791,1.069,1.142,2.351,1.142,3.097l-0.06,0.647
		c-0.177,0.925-0.64,1.629-1.472,2.184C41.704,41.226,40.914,41.461,40.147,41.461L40.147,41.461z"/>
	
		<linearGradient id="SVGID_2_" gradientUnits="userSpaceOnUse" x1="-137.7654" y1="-162.5095" x2="-114.1813" y2="-186.0936" gradientTransform="matrix(0.9563 0 0 -0.9563 157.4864 -144.2242)">
		<stop  offset="0.0393" style="stop-color:#DB070A"/>
		<stop  offset="0.1264" style="stop-color:#DA070A"/>
		<stop  offset="0.343" style="stop-color:#D20608"/>
		<stop  offset="0.6824" style="stop-color:#BB0503"/>
		<stop  offset="0.8132" style="stop-color:#B10400"/>
		<stop  offset="1" style="stop-color:#A70200"/>
	</linearGradient>
	<path fill="url(#SVGID_2_)" d="M32.264,4.661c2.838,0.347,5.238,1.508,6.965,3.393c1.498,1.628,2.396,3.932,2.509,6.381
		c0.006,0.085,0.006,0.261,0.009,0.351c0.003,0.112,0.004,0.229,0.003,0.345c0,0.025,0,0.31-0.006,0.336
		c-0.043,3.392-1.573,6.602-4.155,8.792c-0.051,0.043-0.154,0.128-0.206,0.172c-0.294,0.242-0.577,0.492-0.858,0.739
		c-0.01,0.017-0.172,0.146-0.174,0.166c-0.105,0.093-0.14,0.244-0.097,0.375c0,0.021,0.089,0.207,0.089,0.226
		c0.046,0.186,0.22,0.506,0.493,0.92c0.036,0.061,0.107,0.176,0.148,0.236c0.461,0.688,2.184,3.707,3.227,5.17
		c0.475,0.656,0.919,1.278,1.25,1.743c0.012,0.017,0.033,0.047,0.046,0.063c0.095,0.141,0.174,0.252,0.223,0.325
		c0.52,0.713,0.907,1.492,1.064,2.034c0.007,0.018,0.018,0.044,0.021,0.065c0.003,0.014,0.014,0.039,0.018,0.057
		c0.099,0.293,0.16,0.567,0.19,0.801c0.018,0.051-0.011,0.586,0.005,0.629c-0.016,0.289-0.063,0.56-0.15,0.786
		c-0.049,0.116-0.12,0.34-0.192,0.444c-0.202,0.373-0.496,0.678-0.906,0.953c-0.43,0.284-0.969,0.479-1.516,0.54l0,0
		c-0.163,0.019-0.334,0.022-0.5,0.019l0,0c-0.016-0.004-0.04-0.004-0.053-0.004c-0.261-0.021-0.503-0.061-0.736-0.131
		c-0.169-0.055-0.329-0.121-0.478-0.203c-0.38-0.164-0.854-0.642-1.11-0.975c-0.016-0.024-0.099-0.15-0.211-0.309
		c-0.152-0.222-0.479-0.699-0.514-0.748c-0.02-0.046-0.076-0.118-0.105-0.15V38.2l-6.491-9.854l-0.48-0.846
		c-0.018-0.035-0.081-0.155-0.118-0.267c-0.154-0.369-0.416-1.146-0.426-2.049c-0.004-0.149,0.001-0.299,0.014-0.445
		c0.104-1.203,0.68-2.157,1.761-2.883l0.602-0.364c1.204-0.713,3.517-2.084,3.708-4.769c0.053-0.663-0.017-1.312-0.188-1.926
		c-0.353-1.222-1.178-2.24-2.13-2.804c-0.206-0.114-0.297-0.131-0.542-0.259V4.661L32.264,4.661z"/>
	
		<linearGradient id="SVGID_3_" gradientUnits="userSpaceOnUse" x1="-137.5598" y1="-162.6995" x2="-114.8054" y2="-185.4539" gradientTransform="matrix(0.9563 0 0 -0.9563 157.4864 -144.2242)">
		<stop  offset="0.0393" style="stop-color:#E70613"/>
		<stop  offset="0.1264" style="stop-color:#E60613"/>
		<stop  offset="0.3358" style="stop-color:#DE060F"/>
		<stop  offset="0.6637" style="stop-color:#C70506"/>
		<stop  offset="0.8132" style="stop-color:#BB0500"/>
		<stop  offset="1" style="stop-color:#B40400"/>
	</linearGradient>
	<path fill="url(#SVGID_3_)" d="M32.411,4.892c2.52,0.389,4.648,1.476,6.206,3.165c1.454,1.588,2.316,3.855,2.396,6.265
		c0.004,0.059,0.004,0.287,0.005,0.347c0,0.111,0,0.226,0,0.334c0,0.054-0.001,0.274-0.005,0.328
		c-0.102,3.311-1.658,6.426-4.254,8.501c-0.034,0.028-0.174,0.139-0.208,0.166c-0.299,0.23-0.563,0.49-0.797,0.76
		c-0.017,0.033-0.132,0.145-0.146,0.181c-0.085,0.106-0.112,0.251-0.091,0.382c-0.006,0.039,0.047,0.188,0.047,0.226
		c0.035,0.229,0.174,0.559,0.41,0.94c0.028,0.035,0.111,0.191,0.145,0.23c0.361,0.578,2.008,2.891,3.158,4.506
		c0.42,0.594,0.851,1.788,1.214,2.3c0.008,0.019,0.03,0.048,0.038,0.061c0.093,0.126,0.16,0.229,0.224,0.313
		c0.533,0.741,0.984,1.529,1.129,1.949c0.003,0.012,0.02,0.047,0.02,0.06c0.008,0.012,0.025,0.042,0.03,0.051
		c0.116,0.27,0.201,0.532,0.259,0.768c0.043,0.098,0.049,0.516,0.08,0.604c0.019,0.291,0.006,0.558-0.044,0.771
		c-0.036,0.076-0.104,0.376-0.146,0.446c-0.17,0.393-0.433,0.686-0.843,0.965c-0.395,0.26-0.896,0.432-1.401,0.471l0,0
		c-0.16,0.018-0.315,0.018-0.464,0l0,0c-0.021,0-0.032-0.004-0.057-0.004c-0.234-0.03-0.459-0.079-0.659-0.159
		c-0.146-0.06-0.284-0.136-0.416-0.229c-0.258-0.105-0.789-0.748-0.962-0.97c-0.025-0.047-0.105-0.161-0.201-0.299
		c-0.1-0.147-0.479-0.692-0.503-0.727c-0.014-0.029-0.081-0.12-0.095-0.145l-0.006-0.009l-6.335-9.623l-0.431-0.762
		c-0.016-0.021-0.083-0.166-0.115-0.237c-0.122-0.3-0.377-1.012-0.4-1.847c-0.01-0.134-0.008-0.264,0.003-0.398
		c0.063-1.112,0.57-1.967,1.558-2.636l0.6-0.359c1.151-0.686,3.45-2.041,3.851-4.663c0.091-0.635,0.085-1.28-0.035-1.924
		c-0.222-1.239-0.853-2.289-1.744-3c-0.34-0.333-0.59-0.455-1.011-0.67V4.892H32.411z"/>
	
		<linearGradient id="SVGID_4_" gradientUnits="userSpaceOnUse" x1="-137.3694" y1="-162.9001" x2="-115.4414" y2="-184.8282" gradientTransform="matrix(0.9563 0 0 -0.9563 157.4864 -144.2242)">
		<stop  offset="0.0393" style="stop-color:#F3041D"/>
		<stop  offset="0.1264" style="stop-color:#F3041D"/>
		<stop  offset="0.3259" style="stop-color:#EB0518"/>
		<stop  offset="0.6384" style="stop-color:#D4060A"/>
		<stop  offset="0.8132" style="stop-color:#C50700"/>
		<stop  offset="1" style="stop-color:#C20600"/>
	</linearGradient>
	<path fill="url(#SVGID_4_)" d="M32.557,5.12C34.755,5.556,36.62,6.56,38,8.062c1.417,1.549,2.244,3.778,2.284,6.143
		c0.001,0.029,0.002,0.314,0.002,0.346c0,0.11,0,0.217-0.001,0.33c-0.001,0.074-0.009,0.234-0.013,0.313
		c-0.142,3.23-1.737,6.25-4.336,8.211c-0.018,0.012-0.199,0.146-0.217,0.159c-0.295,0.225-0.541,0.493-0.734,0.78
		c-0.023,0.055-0.098,0.145-0.114,0.201c-0.067,0.112-0.095,0.251-0.089,0.384c-0.007,0.055,0.02,0.168,0.02,0.223
		c0.007,0.281,0.116,0.609,0.313,0.957c0.013,0.019,0.114,0.212,0.132,0.232c0.266,0.461,1.835,2.678,3.095,4.443
		c0.375,0.526,0.777,1.692,1.177,2.253c0.002,0.009,0.037,0.05,0.042,0.056c0.075,0.111,0.147,0.213,0.212,0.301
		c0.557,0.769,1.066,1.566,1.195,1.866c0.002,0.004,0.028,0.048,0.034,0.054c0,0.004,0.02,0.043,0.022,0.047
		c0.139,0.244,0.254,0.492,0.329,0.728c0.074,0.143,0.113,0.446,0.159,0.581c0.061,0.292,0.077,0.56,0.061,0.755
		c-0.019,0.037-0.071,0.415-0.099,0.447c-0.129,0.409-0.366,0.702-0.776,0.979c-0.351,0.239-0.83,0.388-1.294,0.407l0,0
		c-0.139,0.008-0.285,0-0.42-0.019l0,0c-0.021-0.004-0.038-0.008-0.05-0.01c-0.228-0.039-0.425-0.1-0.594-0.188
		c-0.129-0.068-0.245-0.15-0.358-0.249c-0.124-0.057-0.724-0.857-0.807-0.969c-0.036-0.073-0.115-0.178-0.192-0.291
		c-0.054-0.071-0.48-0.688-0.49-0.702c-0.007-0.017-0.085-0.125-0.097-0.14l-0.01-0.01l-6.175-9.393l-0.383-0.683
		c-0.005-0.012-0.096-0.17-0.11-0.208c-0.092-0.23-0.337-0.878-0.377-1.644c-0.009-0.115-0.009-0.234-0.007-0.353
		c0.037-1.021,0.465-1.778,1.359-2.389l0.589-0.354c1.109-0.659,3.388-2.008,3.982-4.559c0.147-0.608,0.195-1.247,0.136-1.921
		c-0.109-1.26-0.588-2.383-1.323-3.233c-0.647-0.644-0.896-0.77-1.521-1.154V5.12z"/>
	
		<linearGradient id="SVGID_5_" gradientUnits="userSpaceOnUse" x1="-137.1941" y1="-163.1145" x2="-116.0896" y2="-184.2189" gradientTransform="matrix(0.9563 0 0 -0.9563 157.4864 -144.2242)">
		<stop  offset="0.1264" style="stop-color:#F00305"/>
		<stop  offset="0.3795" style="stop-color:#E80404"/>
		<stop  offset="0.7759" style="stop-color:#D10800"/>
		<stop  offset="0.8132" style="stop-color:#CF0800"/>
	</linearGradient>
	<path fill="url(#SVGID_5_)" d="M38.976,38.534c-0.15,0-0.298-0.021-0.43-0.052c-0.368-0.086-0.612-0.238-0.815-0.491l-0.655-0.963
		c-0.057-0.095-0.115-0.189-0.188-0.279l-6.597-9.992l-0.438-0.775c-0.079-0.188-0.376-0.917-0.376-1.747
		c0-0.926,0.354-1.59,1.16-2.14l0.579-0.35c1.314-0.782,4.423-2.626,4.423-6.372c0-2.379-1.12-4.44-2.937-5.563V5.347
		c1.875,0.482,3.474,1.408,4.679,2.721c1.382,1.509,2.176,3.701,2.176,6.02v0.346c0,3.383-1.663,6.576-4.45,8.541l-0.22,0.154
		c-0.833,0.596-1.099,1.69-0.631,2.604l0.115,0.232c0.21,0.43,1.932,3.451,4.18,6.589l0.033,0.05c0.63,0.879,1.346,1.871,1.473,2.07
		l0.026,0.045l0.032,0.047c0.517,0.701,0.776,1.563,0.797,1.982l-0.045,0.456c-0.09,0.427-0.293,0.708-0.709,0.986
		C39.842,38.406,39.402,38.534,38.976,38.534L38.976,38.534z"/>
</g>
<g opacity="0.3">
	
		<linearGradient id="SVGID_6_" gradientUnits="userSpaceOnUse" x1="-118.8386" y1="-176.0959" x2="-127.9001" y2="-176.0959" gradientTransform="matrix(0.9563 0 0 -0.9563 157.4864 -144.2242)">
		<stop  offset="0.2143" style="stop-color:#CF0800"/>
		<stop  offset="0.8901" style="stop-color:#8A0000"/>
	</linearGradient>
	<path fill="url(#SVGID_6_)" d="M42.7,34.89c-0.147-0.237-0.801-1.144-1.551-2.188c-1.617-2.261-3.853-5.992-4.042-6.371
		l-0.122-0.229c-0.059-0.13-0.021-0.288,0.096-0.371l0.208-0.15c3.251-2.292,5.189-6.024,5.189-9.979v-0.347
		c0-2.753-0.955-5.381-2.637-7.206c-0.385-0.421-0.811-0.803-1.259-1.155c1.354,1.776,2.115,4.126,2.115,6.58v0.344
		c0,3.954-1.938,7.688-5.188,9.979l-0.213,0.148c-0.116,0.088-0.155,0.243-0.091,0.374l0.113,0.227
		c0.195,0.382,2.429,3.51,4.049,5.771c0.747,1.047,1.396,2.556,1.552,2.791c0.789,1.07,1.144,2.353,1.144,3.097l-0.065,0.647
		c-0.173,0.926-0.64,1.627-1.471,2.185c-0.604,0.406-1.396,0.643-2.16,0.643c-0.301,0-0.584-0.035-0.864-0.1
		c-0.206-0.056-0.404-0.123-0.586-0.208c0.223,0.324,0.564,0.831,0.564,0.831c0.45,0.585,1.038,0.965,1.804,1.155
		c0.277,0.07,0.564,0.104,0.86,0.104c0.768,0,1.558-0.235,2.164-0.645c0.832-0.555,1.295-1.259,1.472-2.184l0.06-0.647
		C43.842,37.241,43.491,35.959,42.7,34.89z"/>
</g>
<path opacity="0.7" fill="#CF0800" enable-background="new    " d="M42.7,34.89c-0.147-0.237-0.801-1.144-1.551-2.188
	c-1.617-2.261-3.853-5.992-4.042-6.371l-0.122-0.229c-0.059-0.13-0.021-0.288,0.096-0.371l0.208-0.15
	c3.251-2.292,5.189-6.024,5.189-9.979v-0.347c0-2.753-0.955-5.381-2.637-7.206c-1.897-2.071-4.564-3.318-7.729-3.613v7.645
	c1.79,0.62,2.936,2.343,2.936,4.463c0,2.743-2.324,4.126-3.567,4.863l-0.612,0.37c-1.313,0.878-1.977,2.1-1.977,3.623
	c0,1.294,0.477,2.363,0.563,2.548l0.523,0.928l6.66,10.092l-0.005-0.006c0.037,0.043,0.078,0.096,0.104,0.152
	c0.08,0.108,0.745,1.09,0.745,1.09c0.45,0.585,1.038,0.965,1.804,1.155c0.277,0.07,0.564,0.104,0.86,0.104
	c0.768,0,1.558-0.235,2.164-0.645c0.832-0.555,1.295-1.259,1.472-2.184l0.06-0.647C43.842,37.241,43.491,35.959,42.7,34.89z
	 M40.869,37.205c-0.09,0.427-0.293,0.708-0.709,0.986c-0.318,0.214-0.759,0.343-1.186,0.343c-0.15,0-0.298-0.021-0.43-0.052
	c-0.368-0.086-0.612-0.238-0.815-0.491l-0.655-0.963c-0.057-0.095-0.115-0.189-0.188-0.279l-6.597-9.992l-0.438-0.775
	c-0.079-0.188-0.376-0.917-0.376-1.747c0-0.926,0.354-1.59,1.16-2.14l0.579-0.35c1.313-0.782,4.423-2.626,4.423-6.372
	c0-2.379-1.12-4.44-2.937-5.563V5.347c1.875,0.482,3.474,1.408,4.679,2.721c1.382,1.509,2.176,3.701,2.176,6.02v0.346
	c0,3.383-1.663,6.576-4.45,8.541l-0.22,0.154c-0.833,0.596-1.099,1.69-0.631,2.604l0.115,0.232c0.21,0.43,1.932,3.451,4.18,6.589
	l0.033,0.05c0.63,0.879,1.346,1.871,1.473,2.07l0.026,0.045l0.032,0.047c0.517,0.701,0.776,1.563,0.797,1.982L40.869,37.205z"/>
<g opacity="0.5">
	<path fill="#990000" d="M32.557,10.829v0.937c0.676,0.301,1.515,0.768,2.304,2.06C34.42,12.34,33.374,11.32,32.557,10.829z"/>
	<path fill="#990000" d="M40.562,32.944l-0.04-0.054c-2.038-2.844-3.896-6.066-4.085-6.442l-0.12-0.229
		c-0.197-0.391-0.083-0.861,0.27-1.117l0.219-0.151c3.095-2.186,4.938-5.734,4.938-9.5v-0.345c0-2.611-0.902-5.096-2.478-6.813
		c-0.108-0.115-0.224-0.224-0.334-0.333c-0.132-0.119-0.266-0.238-0.398-0.354C39.97,9.31,40.8,11.673,40.8,14.159v0.343
		c0,3.767-1.854,7.316-4.944,9.504l-0.211,0.149c-0.356,0.255-0.469,0.725-0.272,1.116l0.121,0.226
		c0.185,0.379,2.053,3.602,4.089,6.445l0.033,0.056c0.694,0.971,1.354,1.889,1.494,2.11c0.702,0.948,1.056,2.106,1.056,2.778
		l-0.067,0.591c-0.137,0.729-0.511,1.287-1.21,1.757c-0.511,0.345-1.18,0.542-1.837,0.542c-0.249,0-0.49-0.027-0.716-0.086
		c-0.245-0.059-0.463-0.148-0.667-0.257l0.288,0.411c0.059,0.081,0.129,0.148,0.191,0.217c0.31,0.272,0.679,0.462,1.135,0.575
		c0.222,0.058,0.466,0.086,0.718,0.086c0.65,0,1.321-0.199,1.837-0.545c0.696-0.467,1.067-1.024,1.211-1.754l0.059-0.589
		c0-0.674-0.348-1.831-1.049-2.78C41.914,34.834,41.256,33.914,40.562,32.944z"/>
</g>
<g opacity="0.7">
	
		<linearGradient id="SVGID_7_" gradientUnits="userSpaceOnUse" x1="-131.1365" y1="-157.0583" x2="-126.9567" y2="-161.2381" gradientTransform="matrix(0.9563 0 0 -0.9563 157.4864 -144.2242)">
		<stop  offset="0" style="stop-color:#FFFFFF"/>
		<stop  offset="0.3685" style="stop-color:#FFFDFD"/>
		<stop  offset="0.5013" style="stop-color:#FFF8F6"/>
		<stop  offset="0.596" style="stop-color:#FFEFEB"/>
		<stop  offset="0.6725" style="stop-color:#FFE1DA"/>
		<stop  offset="0.7381" style="stop-color:#FFCFC4"/>
		<stop  offset="0.7961" style="stop-color:#FFBAA8"/>
		<stop  offset="0.8487" style="stop-color:#FFA088"/>
		<stop  offset="0.8969" style="stop-color:#FF8262"/>
		<stop  offset="0.9419" style="stop-color:#FF5F37"/>
		<stop  offset="0.9817" style="stop-color:#FF3A09"/>
		<stop  offset="0.989" style="stop-color:#FF3300"/>
	</linearGradient>
	<path fill="url(#SVGID_7_)" d="M33.893,6.537c1.433,0.371,2.701,0.997,3.761,1.854c-0.089-0.107-0.177-0.223-0.271-0.324
		c-1.205-1.313-2.804-2.237-4.679-2.721V9.81c0.441,0.274,0.837,0.603,1.188,0.979L33.893,6.537L33.893,6.537z"/>
	
		<linearGradient id="SVGID_8_" gradientUnits="userSpaceOnUse" x1="-134.8528" y1="-168.7092" x2="-118.524" y2="-185.0381" gradientTransform="matrix(0.9563 0 0 -0.9563 157.4864 -144.2242)">
		<stop  offset="0" style="stop-color:#FFFFFF"/>
		<stop  offset="0.1615" style="stop-color:#FFCDC1"/>
		<stop  offset="0.3892" style="stop-color:#FF8C6F"/>
		<stop  offset="0.5764" style="stop-color:#FF5C33"/>
		<stop  offset="0.7134" style="stop-color:#FF3E0E"/>
		<stop  offset="0.7857" style="stop-color:#FF3300"/>
	</linearGradient>
	<path fill="url(#SVGID_8_)" d="M38.266,38.221c-0.06-0.099-0.119-0.193-0.188-0.283l-6.592-9.989l-0.438-0.776
		c-0.087-0.187-0.385-0.916-0.385-1.749c0-0.926,0.362-1.585,1.168-2.135l0.582-0.354c1.311-0.781,4.417-2.624,4.417-6.372
		c0-2.176-0.949-4.082-2.503-5.251c0.834,1.109,1.314,2.515,1.314,4.063c0,3.745-3.107,5.59-4.423,6.372l-0.579,0.35
		c-0.806,0.55-1.16,1.214-1.16,2.14c0,0.83,0.297,1.561,0.376,1.747l0.438,0.775l6.597,9.992c0.071,0.09,0.131,0.186,0.188,0.279
		l0.655,0.963c0.181,0.223,0.396,0.357,0.691,0.453L38.266,38.221z"/>
</g>
<path fill="#B33D00" d="M27.006,42.066l-8.201-0.001c-0.167,0-0.294-0.131-0.294-0.292l-0.009-16.47l0.009-9.233L18.515,16
	c-0.017-1.941-1.603-3.523-3.545-3.523c-1.962,0-3.554,1.594-3.554,3.554v9.332l-0.007,1.887l0.013,4.056l-0.018,10.47
	c0,0.161-0.134,0.292-0.297,0.292l-8.192-0.001c-0.16,0-0.292-0.13-0.292-0.291v-10.47v-4.056V16.07
	c0-6.849,5.539-12.388,12.347-12.388c2.909,0,5.72,1.037,7.946,2.916c0.521-0.444,1.101-0.852,1.729-1.215
	c0.198-0.129,0.412-0.232,0.619-0.335l0.22-0.104l0.114-0.061c0.073-0.035,0.141-0.072,0.208-0.104
	c0.29-0.13,0.579-0.235,0.878-0.344l0.103-0.038c0.049-0.021,0.101-0.041,0.153-0.06c0.953-0.311,1.977-0.517,3.035-0.601
	c0.004,0,0.014,0,0.022,0c0.07,0,0.141,0.03,0.199,0.081c0.059,0.054,0.094,0.132,0.094,0.212v8.267
	c0,0.137-0.101,0.253-0.229,0.284c-1.426,0.323-2.521,1.516-2.724,2.962l0.007,0.154l-0.019,0.148
	c-0.011,0.05-0.018,0.102-0.018,0.149v0.015c0.005,0.018,0.007,0.04,0.007,0.059l-0.007,9.008l-0.019,16.695
	C27.291,41.934,27.162,42.066,27.006,42.066L27.006,42.066z"/>
<g>
	
		<linearGradient id="SVGID_9_" gradientUnits="userSpaceOnUse" x1="-160.5393" y1="-161.7185" x2="-132.4154" y2="-189.8423" gradientTransform="matrix(0.9563 0 0 -0.9563 157.4864 -144.2242)">
		<stop  offset="0.0393" style="stop-color:#F48120"/>
		<stop  offset="0.2504" style="stop-color:#EC7B1C"/>
		<stop  offset="0.5817" style="stop-color:#D56A12"/>
		<stop  offset="0.9899" style="stop-color:#B14E00"/>
		<stop  offset="1" style="stop-color:#B04D00"/>
	</linearGradient>
	<path fill="url(#SVGID_9_)" d="M28.64,4.507c-0.521,0.1-1.028,0.228-1.513,0.387c-0.044,0.015-0.084,0.031-0.121,0.047
		c-0.038,0.017-0.083,0.032-0.124,0.046C26.6,5.09,26.322,5.19,26.057,5.312c-0.062,0.029-0.128,0.058-0.185,0.092L25.744,5.47
		L25.52,5.579c-0.196,0.093-0.395,0.184-0.587,0.309c-0.147,0.087-0.286,0.176-0.432,0.271c-0.148,0.09-0.287,0.182-0.421,0.278
		c-0.15,0.105-0.295,0.213-0.438,0.322c-0.187,0.146-0.367,0.292-0.542,0.444c-0.048,0.049-0.122,0.071-0.187,0.071
		c-0.07,0-0.143-0.022-0.199-0.071c-0.095-0.085-0.197-0.172-0.294-0.253c-0.118-0.094-0.229-0.188-0.351-0.276
		c-0.073-0.053-0.139-0.104-0.207-0.156c-2.004-1.456-4.412-2.247-6.896-2.247c-5.929,0-10.836,4.415-11.633,10.155
		c-0.076,0.538-0.128,1.086-0.128,1.643v11.179v4.056v10.174h7.611l0.019-10.174l-0.011-4.056l0.002-1.887V16.03
		c0-0.568,0.112-1.108,0.319-1.601c0.141-0.328,0.319-0.63,0.528-0.906c0.377-0.496,0.862-0.902,1.427-1.187
		c0.56-0.285,1.195-0.446,1.864-0.446c1.243,0,2.369,0.563,3.126,1.444c0.281,0.322,0.508,0.692,0.682,1.095
		c0.208,0.483,0.314,1.01,0.323,1.567c0,0-0.009,0.07-0.009,0.072l-0.005,9.233l0.005,16.174l7.616-0.002l0.01-16.397l0.008-8.959
		c-0.004-0.033-0.008-0.069-0.008-0.121c0-0.081,0.012-0.159,0.026-0.24l0.012-0.059l0.006-0.235
		c0.047-0.363,0.148-0.706,0.292-1.036c0.084-0.209,0.191-0.41,0.313-0.603c0.202-0.315,0.443-0.604,0.727-0.854
		c0.159-0.147,0.334-0.279,0.516-0.401c0.181-0.115,0.369-0.22,0.565-0.309c0.17-0.074,0.344-0.137,0.524-0.19v-0.609V9.008V7.786
		V5.164v-0.81C29.342,4.388,28.99,4.441,28.64,4.507z"/>
	
		<linearGradient id="SVGID_10_" gradientUnits="userSpaceOnUse" x1="-160.5012" y1="-161.801" x2="-133.1989" y2="-189.1032" gradientTransform="matrix(0.9563 0 0 -0.9563 157.4864 -144.2242)">
		<stop  offset="0.0393" style="stop-color:#F58627"/>
		<stop  offset="0.2933" style="stop-color:#ED8023"/>
		<stop  offset="0.3933" style="stop-color:#E87C21"/>
		<stop  offset="0.5917" style="stop-color:#E0741C"/>
		<stop  offset="0.9024" style="stop-color:#C9600D"/>
		<stop  offset="1" style="stop-color:#C15808"/>
	</linearGradient>
	<path fill="url(#SVGID_10_)" d="M28.1,4.73c-0.389,0.075-0.813,0.189-1.177,0.31c-0.092,0.031-0.186,0.066-0.271,0.103
		c-0.024,0.013-0.079,0.034-0.11,0.046c-0.208,0.073-0.452,0.17-0.654,0.261c-0.043,0.021-0.097,0.051-0.138,0.07l-0.11,0.06
		l-0.23,0.108c-0.185,0.088-0.358,0.17-0.523,0.28c-0.11,0.063-0.232,0.135-0.338,0.204c-0.111,0.068-0.219,0.143-0.323,0.216
		c-0.143,0.098-0.289,0.201-0.435,0.307c-0.171,0.128-0.342,0.267-0.506,0.399c-0.102,0.087-0.213,0.16-0.327,0.204
		c-0.083,0.033-0.174,0.039-0.255,0.02c-0.11-0.049-0.224-0.1-0.333-0.154C22.261,7.1,22.14,7.036,22.015,6.97
		c-0.038-0.036-0.499-0.224-0.519-0.241c-1.957-1.495-4.352-2.311-6.822-2.311c-5.338,0-9.805,3.786-10.84,8.804
		c-0.086,0.136-0.374,1.204-0.374,1.204c-0.064,0.445-0.103,0.894-0.103,1.352v11.178v4.055v9.738h6.729l0.023-9.737l-0.016-4.056
		l0.001-1.886v-9.33c0-0.467,0.096-0.908,0.251-1.312c0.114-0.442,0.299-0.859,0.545-1.231c0.394-0.6,0.93-1.089,1.548-1.443
		c0.662-0.374,1.423-0.595,2.234-0.595c1.391,0,2.643,0.627,3.477,1.612c0.402,0.476,0.699,1.038,0.853,1.655
		c0.044,0.135,0.078,0.272,0.115,0.416c0.006,0.016,0.012,0.048,0.012,0.069c0.073,0.257,0.121,0.775,0.121,1.056l-0.003,0.08
		l-0.012,8.963l0.009,15.736h6.732l0.014-15.963l0.005-8.701c0-0.022-0.001-0.073-0.001-0.112c0-0.063,0.006-0.168,0.015-0.23
		l0.011-0.051l0.003-0.228c0.015-0.108,0.039-0.326,0.063-0.433c0.011-0.073,0.03-0.146,0.047-0.225
		c0.03-0.131,0.072-0.258,0.112-0.38l0.001-0.067c0.067-0.156,0.151-0.333,0.242-0.476c0.161-0.329,0.367-0.627,0.602-0.897
		c0.135-0.157,0.282-0.304,0.439-0.438c0.188-0.202,0.392-0.385,0.611-0.547c0.19-0.137,0.389-0.254,0.604-0.357
		c0.069-0.056,0.146-0.064,0.226-0.11v-2.63V7.708v-2.16V4.593C28.675,4.625,28.386,4.673,28.1,4.73z"/>
	
		<linearGradient id="SVGID_11_" gradientUnits="userSpaceOnUse" x1="-160.4822" y1="-161.8679" x2="-133.9921" y2="-188.358" gradientTransform="matrix(0.9563 0 0 -0.9563 157.4864 -144.2242)">
		<stop  offset="0.0393" style="stop-color:#F68B2F"/>
		<stop  offset="0.3933" style="stop-color:#EE842B"/>
		<stop  offset="0.6168" style="stop-color:#E77C24"/>
		<stop  offset="0.9671" style="stop-color:#D46512"/>
		<stop  offset="1" style="stop-color:#D26310"/>
	</linearGradient>
	<path fill="url(#SVGID_11_)" d="M27.566,4.955c-0.263,0.05-0.604,0.15-0.849,0.23c-0.137,0.049-0.277,0.1-0.407,0.157
		c-0.024,0.01-0.085,0.036-0.104,0.043c-0.142,0.054-0.347,0.138-0.479,0.2c-0.026,0.012-0.077,0.034-0.104,0.052L25.537,5.68
		l-0.232,0.113c-0.174,0.082-0.339,0.157-0.47,0.249c-0.076,0.043-0.169,0.099-0.24,0.143c-0.071,0.046-0.161,0.105-0.228,0.151
		c-0.145,0.096-0.286,0.192-0.43,0.29c-0.159,0.119-0.31,0.243-0.471,0.358c-0.153,0.124-0.309,0.24-0.472,0.333
		c-0.096,0.067-0.212,0.1-0.321,0.117c-0.117-0.017-0.233-0.031-0.356-0.056c-0.115-0.036-0.232-0.072-0.347-0.114
		c-0.037-0.025-0.776-0.266-0.846-0.326c-1.914-1.533-4.288-2.372-6.746-2.372c-4.753,0-8.772,3.157-10.055,7.452
		c-0.438,0.703-0.744,2.408-0.744,2.408c-0.042,0.348-0.078,0.698-0.078,1.059v11.177v4.057v9.294h5.854l0.02-9.29L9.364,26.66
		l0.002-1.882v-9.331c0-0.359,0.059-0.702,0.177-1.02c0.088-0.559,0.285-1.088,0.563-1.558c0.409-0.695,0.984-1.275,1.668-1.698
		c0.756-0.471,1.65-0.746,2.605-0.746c1.528,0,2.907,0.696,3.827,1.788c0.52,0.622,0.88,1.38,1.017,2.211
		c0.034,0.135,0.057,0.272,0.09,0.411c0,0.013,0.006,0.055,0.006,0.07c0.042,0.172,0.072,0.848,0.072,1.034c0,0,0,0.081,0,0.083
		l-0.007,8.691l0.004,15.296h5.854l0.015-15.521l0.008-8.439c-0.001-0.016-0.002-0.08-0.002-0.103c0-0.041,0.002-0.181,0.008-0.221
		l0.011-0.043v-0.219c0.015-0.074,0.023-0.363,0.046-0.435c0.006-0.068,0.016-0.142,0.026-0.22c0.021-0.135,0.049-0.26,0.086-0.386
		v-0.133c0.048-0.104,0.11-0.264,0.17-0.354c0.124-0.335,0.284-0.649,0.478-0.939c0.115-0.165,0.231-0.322,0.366-0.475
		c0.191-0.285,0.407-0.548,0.665-0.788c0.207-0.189,0.432-0.364,0.67-0.519c0.141-0.117,0.289-0.108,0.453-0.195V8.79V7.628V5.934
		v-1.1C28.01,4.864,27.787,4.909,27.566,4.955z"/>
	
		<linearGradient id="SVGID_12_" gradientUnits="userSpaceOnUse" x1="-160.4934" y1="-161.908" x2="-134.7787" y2="-187.6227" gradientTransform="matrix(0.9563 0 0 -0.9563 157.4864 -144.2242)">
		<stop  offset="0.0393" style="stop-color:#F78F36"/>
		<stop  offset="0.3933" style="stop-color:#F38C34"/>
		<stop  offset="0.6271" style="stop-color:#EF842D"/>
		<stop  offset="0.9934" style="stop-color:#E36D18"/>
		<stop  offset="1" style="stop-color:#E36D18"/>
	</linearGradient>
	<path fill="url(#SVGID_12_)" d="M27.032,5.181c-0.138,0.022-0.395,0.105-0.519,0.146c-0.192,0.068-0.376,0.137-0.558,0.217
		c-0.014,0.005-0.08,0.038-0.089,0.041c-0.071,0.025-0.238,0.104-0.303,0.134c-0.017,0.004-0.056,0.027-0.066,0.038l-0.063,0.026
		l-0.235,0.114c-0.163,0.08-0.314,0.147-0.418,0.22c-0.038,0.021-0.104,0.059-0.135,0.083c-0.039,0.022-0.101,0.06-0.134,0.085
		c-0.146,0.088-0.286,0.18-0.426,0.272c-0.149,0.104-0.296,0.212-0.438,0.319c-0.204,0.156-0.406,0.309-0.599,0.461
		c-0.12,0.097-0.263,0.163-0.4,0.208c-0.123,0.025-0.25,0.04-0.384,0.043c-0.116-0.001-0.23-0.012-0.35-0.03
		c-0.017-0.01-0.867-0.159-1.16-0.412c-1.871-1.569-4.229-2.436-6.665-2.436c-4.171,0-7.752,2.526-9.268,6.101
		c-0.658,1.059-1.125,3.614-1.125,3.614c-0.022,0.254-0.05,0.508-0.05,0.768V26.37v4.055v8.859h4.977l0.018-8.854l-0.016-4.063
		l0.004-1.88v-9.333c0-0.25,0.044-0.494,0.099-0.726c0.08-0.676,0.28-1.312,0.595-1.886c0.42-0.789,1.042-1.459,1.787-1.95
		c0.857-0.566,1.881-0.897,2.981-0.897c1.668,0,3.166,0.763,4.171,1.961c0.642,0.77,1.07,1.726,1.184,2.771
		c0.021,0.133,0.032,0.269,0.053,0.404c0,0.008,0.003,0.062,0.003,0.073c0.022,0.089,0.036,0.921,0.036,1.011v0.087l-0.009,8.423
		l0.003,14.857h4.979l0.01-15.085l0.012-8.18c-0.002-0.006-0.002-0.082-0.002-0.093c0-0.02,0.003-0.189,0.007-0.209V15.68v-0.209
		c0.007-0.039,0.018-0.399,0.024-0.434c0.002-0.067,0.006-0.141,0.006-0.217c0.014-0.139,0.038-0.266,0.062-0.395l0.015-0.198
		c0.012-0.052,0.049-0.186,0.086-0.23c0.083-0.343,0.202-0.674,0.354-0.979c0.089-0.178,0.181-0.351,0.29-0.516
		c0.197-0.371,0.433-0.711,0.712-1.022c0.227-0.251,0.475-0.481,0.748-0.685c0.209-0.177,0.432-0.346,0.673-0.482V8.68V7.55V6.316
		V5.076C27.347,5.106,27.185,5.14,27.032,5.181z"/>
	
		<linearGradient id="SVGID_13_" gradientUnits="userSpaceOnUse" x1="-160.552" y1="-161.8923" x2="-135.5665" y2="-186.8778" gradientTransform="matrix(0.9563 0 0 -0.9563 157.4864 -144.2242)">
		<stop  offset="0.3933" style="stop-color:#F8943D"/>
		<stop  offset="0.6385" style="stop-color:#F78C35"/>
		<stop  offset="1" style="stop-color:#F47820"/>
	</linearGradient>
	<path fill="url(#SVGID_13_)" d="M26.489,5.405l-0.177,0.069c-0.245,0.087-0.475,0.171-0.703,0.274l-0.08,0.04l-0.127,0.067
		L25.37,5.874L25.334,5.89l-0.248,0.116c-0.15,0.072-0.275,0.134-0.357,0.188l-0.037,0.021l-0.035,0.021
		c-0.14,0.082-0.279,0.17-0.416,0.258c-0.139,0.09-0.271,0.18-0.401,0.273c-0.263,0.188-0.513,0.387-0.742,0.594
		c-0.14,0.121-0.302,0.223-0.467,0.302c-0.131,0.061-0.27,0.108-0.411,0.14c-0.114,0.029-0.233,0.046-0.352,0.056
		c-0.042,0.002-0.081,0.012-0.121,0.012c-0.486,0-0.965-0.18-1.354-0.514c-1.83-1.607-4.171-2.496-6.598-2.496
		c-3.574,0.001-6.712,1.9-8.478,4.744c-0.874,1.415-1.41,3.062-1.492,4.823c-0.004,0.16-0.018,0.315-0.018,0.474v11.18v4.055v8.417
		h4.09l0.015-8.413L7.9,26.077v-1.88v-9.335c0-0.146,0.017-0.292,0.02-0.434c0.062-0.791,0.279-1.539,0.616-2.209
		c0.439-0.887,1.104-1.646,1.913-2.206c0.952-0.663,2.106-1.05,3.345-1.05c1.814,0,3.447,0.832,4.527,2.131
		c0.756,0.918,1.247,2.073,1.348,3.333c0.012,0.133,0.02,0.263,0.02,0.4c0,0.003,0,0.068,0,0.076l-0.008,9.229l0.003,14.418h4.097
		l0.011-14.643l0.013-8.869c-0.008-0.063-0.01-0.135-0.01-0.209c0-0.146,0.019-0.272,0.035-0.403c0-0.019,0-0.037,0.005-0.056
		l0.004-0.101l0.002-0.109l0.012-0.11c0.045-0.347,0.126-0.688,0.232-1.017c0.058-0.188,0.133-0.372,0.217-0.553
		c0.2-0.452,0.451-0.876,0.759-1.259c0.245-0.313,0.519-0.594,0.819-0.853c0.275-0.234,0.578-0.446,0.897-0.625V8.571v-1.1v-0.77
		V5.314C26.685,5.343,26.587,5.373,26.489,5.405z"/>
</g>
<g opacity="0.42">
	
		<linearGradient id="SVGID_14_" gradientUnits="userSpaceOnUse" x1="-138.5359" y1="-195.1448" x2="-162.5397" y2="-170.1339" gradientTransform="matrix(0.9563 0 0 -0.9563 157.4864 -144.2242)">
		<stop  offset="0.0385" style="stop-color:#FFCC66"/>
		<stop  offset="0.3736" style="stop-color:#F48120"/>
		<stop  offset="0.5112" style="stop-color:#EC7B1C"/>
		<stop  offset="0.7272" style="stop-color:#D56A12"/>
		<stop  offset="0.9934" style="stop-color:#B14E00"/>
		<stop  offset="1" style="stop-color:#B04D00"/>
	</linearGradient>
	<path fill="url(#SVGID_14_)" d="M13.18,10.107c-2.276,0-4.133,1.859-4.133,4.144v9.333l-0.005,1.881l0.013,4.055l-0.02,10.178
		H3.209v1.781h7.611l0.019-10.174l-0.011-4.056l0.002-1.887V16.03c0-2.279,1.857-4.14,4.14-4.14c0.677,0,1.316,0.17,1.885,0.463
		C16.165,11.026,14.771,10.107,13.18,10.107z"/>
	
		<linearGradient id="SVGID_15_" gradientUnits="userSpaceOnUse" x1="-129.4421" y1="-184.9158" x2="-153.1271" y2="-160.2372" gradientTransform="matrix(0.9563 0 0 -0.9563 157.4864 -144.2242)">
		<stop  offset="0.0385" style="stop-color:#FFCC66"/>
		<stop  offset="0.3736" style="stop-color:#F48120"/>
		<stop  offset="0.5112" style="stop-color:#EC7B1C"/>
		<stop  offset="0.7272" style="stop-color:#D56A12"/>
		<stop  offset="0.9934" style="stop-color:#B14E00"/>
		<stop  offset="1" style="stop-color:#B04D00"/>
	</linearGradient>
	<path fill="url(#SVGID_15_)" d="M27.92,4.669v5.618c-1.553,0.447-2.721,1.782-2.945,3.394l-0.002,0.238l-0.014,0.059
		c-0.009,0.078-0.023,0.157-0.023,0.24c0,0.05,0.003,0.085,0.014,0.118l-0.016,8.959l-0.011,16.4H19.09l0.002,1.781l7.616-0.002
		l0.01-16.397l0.008-8.959c-0.004-0.033-0.008-0.069-0.008-0.121c0-0.081,0.012-0.159,0.026-0.24l0.012-0.059l0.006-0.235
		c0.223-1.61,1.389-2.947,2.938-3.394V4.355C29.089,4.414,28.494,4.524,27.92,4.669z"/>
</g>
<path opacity="0.68" fill="#F48120" enable-background="new    " d="M28.64,4.507c-0.521,0.1-1.028,0.228-1.513,0.387
	c-0.044,0.015-0.084,0.031-0.121,0.047c-0.038,0.017-0.083,0.032-0.124,0.046C26.6,5.09,26.322,5.19,26.057,5.312
	c-0.062,0.029-0.128,0.058-0.185,0.092L25.744,5.47L25.52,5.579c-0.196,0.093-0.395,0.184-0.587,0.309
	c-0.147,0.087-0.286,0.176-0.432,0.271c-0.148,0.09-0.287,0.182-0.421,0.278c-0.15,0.105-0.295,0.213-0.438,0.322
	c-0.187,0.146-0.367,0.292-0.542,0.444c-0.048,0.049-0.122,0.071-0.187,0.071c-0.07,0-0.143-0.022-0.199-0.071
	c-0.095-0.085-0.197-0.172-0.294-0.253c-0.118-0.094-0.229-0.188-0.351-0.276c-0.073-0.053-0.139-0.104-0.207-0.156
	c-2.004-1.456-4.412-2.247-6.896-2.247c-5.929,0-10.836,4.415-11.633,10.155c-0.076,0.538-0.128,1.086-0.128,1.643v11.179v4.056
	v10.174h7.611l0.019-10.174l-0.011-4.056l0.002-1.887V16.03c0-0.568,0.112-1.108,0.319-1.601c0.141-0.328,0.319-0.63,0.528-0.906
	c0.377-0.496,0.862-0.902,1.427-1.187c0.56-0.285,1.195-0.446,1.864-0.446c1.243,0,2.369,0.563,3.126,1.444
	c0.281,0.322,0.508,0.692,0.682,1.095c0.208,0.483,0.314,1.01,0.323,1.567c0,0-0.009,0.07-0.009,0.072l-0.005,9.233l0.005,16.174
	l7.616-0.002l0.01-16.397l0.008-8.959c-0.004-0.033-0.008-0.069-0.008-0.121c0-0.081,0.012-0.159,0.026-0.24l0.012-0.059
	l0.006-0.235c0.047-0.363,0.148-0.706,0.292-1.036c0.084-0.209,0.191-0.41,0.313-0.603c0.202-0.315,0.443-0.604,0.727-0.854
	c0.159-0.147,0.334-0.279,0.516-0.401c0.181-0.115,0.369-0.22,0.565-0.309c0.17-0.074,0.344-0.137,0.524-0.19v-0.609V9.008V7.786
	V5.164v-0.81C29.342,4.388,28.99,4.441,28.64,4.507z M26.775,6.702v0.77v1.1v1.176c-0.319,0.179-0.622,0.391-0.897,0.625
	c-0.302,0.259-0.574,0.54-0.819,0.853c-0.308,0.383-0.559,0.809-0.759,1.259c-0.084,0.181-0.159,0.363-0.217,0.553
	c-0.106,0.327-0.188,0.67-0.232,1.017l-0.012,0.11l-0.002,0.109l-0.004,0.101c-0.005,0.019-0.005,0.037-0.005,0.056
	c-0.018,0.131-0.035,0.257-0.035,0.403c0,0.074,0.002,0.146,0.01,0.209l-0.013,8.869l-0.011,14.643h-4.097l-0.002-14.42l0.008-9.229
	c0-0.008,0-0.073,0-0.076c0-0.138-0.008-0.268-0.02-0.4c-0.101-1.26-0.592-2.414-1.348-3.333c-1.08-1.299-2.713-2.131-4.527-2.131
	c-1.237,0-2.393,0.387-3.345,1.05c-0.811,0.559-1.474,1.319-1.913,2.206c-0.337,0.67-0.556,1.419-0.616,2.209
	c-0.003,0.143-0.02,0.289-0.02,0.435v9.335v1.88l0.011,4.062l-0.015,8.413h-4.09v-8.417V26.08v-11.18
	c0-0.157,0.014-0.313,0.018-0.474c0.081-1.762,0.618-3.408,1.492-4.823c1.766-2.844,4.902-4.743,8.478-4.744
	c2.427,0,4.768,0.888,6.598,2.496c0.391,0.334,0.868,0.514,1.354,0.514c0.04,0,0.079-0.01,0.121-0.012
	c0.117-0.01,0.236-0.025,0.352-0.056c0.143-0.03,0.28-0.079,0.411-0.14c0.165-0.079,0.327-0.181,0.467-0.302
	c0.229-0.207,0.479-0.406,0.742-0.594c0.132-0.094,0.264-0.185,0.4-0.273c0.138-0.087,0.277-0.176,0.416-0.258l0.036-0.021
	l0.037-0.021c0.082-0.055,0.207-0.115,0.357-0.188l0.248-0.116l0.036-0.016l0.031-0.02l0.127-0.067l0.08-0.04
	c0.229-0.104,0.458-0.188,0.703-0.274l0.177-0.069c0.099-0.031,0.195-0.062,0.286-0.091L26.775,6.702L26.775,6.702z"/>
<g opacity="0.4">
	<path fill="#B34220" d="M17.436,11.851c-0.891-1.046-2.199-1.645-3.565-1.645c-0.737,0-1.473,0.178-2.125,0.509
		c-0.638,0.316-1.196,0.786-1.633,1.354c-0.239,0.32-0.443,0.666-0.598,1.031c-0.248,0.581-0.37,1.199-0.37,1.83v9.337v1.878
		l0.01,4.06l-0.021,9.59H3.796v1.098h6.438l0.018-9.586l-0.011-4.058v-1.887V16.03c0-0.63,0.126-1.25,0.373-1.828
		c0.152-0.367,0.354-0.715,0.6-1.033c0.434-0.569,0.995-1.036,1.625-1.354c0.654-0.331,1.389-0.508,2.132-0.508
		c0.975,0,1.925,0.313,2.705,0.869C17.598,12.066,17.535,11.953,17.436,11.851z"/>
	<path fill="#B34220" d="M28.746,5.085c-0.244,0.043-0.483,0.099-0.728,0.159v1.439v1.228v2.449v0.193
		c-0.06,0.02-0.121,0.047-0.18,0.071c-0.22,0.102-0.441,0.217-0.649,0.356c-0.216,0.144-0.415,0.294-0.597,0.459
		c-0.313,0.285-0.59,0.616-0.814,0.975c-0.14,0.215-0.262,0.445-0.364,0.685c-0.172,0.395-0.281,0.792-0.336,1.184l-0.004,0.038
		v0.034v0.189v0.01c-0.02,0.124-0.036,0.232-0.036,0.344c0,0.064,0.007,0.116,0.012,0.162l-0.014,8.917l-0.014,15.816H19.68v1.098
		h6.444l0.01-15.813l0.009-8.917c-0.004-0.044-0.009-0.1-0.009-0.163c0-0.112,0.012-0.221,0.03-0.342l0.007-0.012l0.004-0.188
		v-0.038l0.006-0.034c0.052-0.39,0.163-0.789,0.334-1.188c0.097-0.236,0.22-0.466,0.358-0.68c0.229-0.362,0.501-0.692,0.819-0.979
		c0.182-0.163,0.376-0.317,0.596-0.457c0.214-0.138,0.432-0.258,0.65-0.354c0.061-0.026,0.118-0.053,0.183-0.074v-0.191V9.008V7.786
		V5.165V5.018C28.993,5.039,28.866,5.06,28.746,5.085z"/>
</g>
<g opacity="0.76">
	
		<linearGradient id="SVGID_16_" gradientUnits="userSpaceOnUse" x1="-160.55" y1="-161.8914" x2="-145.3894" y2="-177.0521" gradientTransform="matrix(0.9563 0 0 -0.9563 157.4864 -144.2242)">
		<stop  offset="0" style="stop-color:#FFFFFF"/>
		<stop  offset="0.0676" style="stop-color:#FFF1D4"/>
		<stop  offset="0.1701" style="stop-color:#FFDD99"/>
		<stop  offset="0.2457" style="stop-color:#FFD174"/>
		<stop  offset="0.2857" style="stop-color:#FFCC66"/>
		<stop  offset="0.4" style="stop-color:#FCBF52"/>
	</linearGradient>
	<path fill="url(#SVGID_16_)" d="M4.988,31.321v-4.053V16.092c0-0.161,0.021-0.317,0.025-0.475c0.082-1.766,0.613-3.406,1.496-4.819
		c1.76-2.85,4.899-4.748,8.479-4.748c2.422,0,4.764,0.889,6.591,2.497c0.394,0.336,0.867,0.513,1.358,0.513
		c0.041,0,0.076-0.011,0.119-0.013c0.122-0.009,0.236-0.024,0.354-0.05c0.14-0.034,0.276-0.082,0.407-0.145
		c0.167-0.079,0.32-0.178,0.467-0.3c0.23-0.208,0.48-0.407,0.737-0.593c0.13-0.096,0.271-0.188,0.407-0.274
		c0.136-0.089,0.277-0.175,0.418-0.259l0.033-0.018l0.036-0.024C26,7.329,26.133,7.266,26.28,7.197l0.244-0.117l0.036-0.018
		l0.026-0.017l0.131-0.069l0.058-0.029V6.702V5.314c-0.091,0.029-0.188,0.06-0.286,0.091l-0.177,0.069
		c-0.245,0.087-0.475,0.171-0.703,0.274l-0.08,0.04l-0.127,0.067L25.37,5.874L25.334,5.89l-0.248,0.116
		c-0.15,0.072-0.275,0.134-0.357,0.188l-0.037,0.021l-0.035,0.021c-0.14,0.082-0.279,0.17-0.416,0.258
		c-0.139,0.09-0.271,0.18-0.401,0.273c-0.263,0.188-0.513,0.387-0.742,0.594c-0.14,0.121-0.302,0.223-0.467,0.302
		c-0.131,0.061-0.27,0.108-0.411,0.14c-0.114,0.029-0.233,0.046-0.352,0.056c-0.042,0.002-0.081,0.012-0.121,0.012
		c-0.486,0-0.965-0.18-1.354-0.514c-1.83-1.607-4.171-2.496-6.598-2.496c-3.574,0.001-6.712,1.9-8.478,4.744
		c-0.874,1.415-1.41,3.062-1.492,4.823c-0.004,0.16-0.018,0.315-0.018,0.474v11.18v4.055v8.417h1.182L4.988,31.321L4.988,31.321z"/>
	
		<linearGradient id="SVGID_17_" gradientUnits="userSpaceOnUse" x1="-152.1199" y1="-169.45" x2="-136.6499" y2="-184.9199" gradientTransform="matrix(0.9563 0 0 -0.9563 157.4864 -144.2242)">
		<stop  offset="0" style="stop-color:#FFFFFF"/>
		<stop  offset="0.0676" style="stop-color:#FFF1D4"/>
		<stop  offset="0.1701" style="stop-color:#FFDD99"/>
		<stop  offset="0.2457" style="stop-color:#FFD174"/>
		<stop  offset="0.2857" style="stop-color:#FFCC66"/>
		<stop  offset="0.5604" style="stop-color:#FCBF52"/>
		<stop  offset="1" style="stop-color:#F7A52A"/>
	</linearGradient>
	<path fill="url(#SVGID_17_)" d="M20.87,25.325l0.006-9.232c0-0.004,0-0.072,0-0.075c0-0.134-0.011-0.269-0.021-0.4
		c-0.091-1.262-0.586-2.415-1.345-3.331c-0.298-0.355-0.636-0.674-1.008-0.953c0.657,0.878,1.076,1.938,1.166,3.094
		c0.012,0.133,0.02,0.263,0.02,0.4c0,0.003,0,0.068,0,0.076l-0.008,9.229l0.003,14.418h1.189L20.87,25.325z"/>
</g>
</svg>
