<?xml version="1.0" encoding="utf-8"?>
<!-- Generator: Adobe Illustrator 16.0.0, SVG Export Plug-In . SVG Version: 6.00 Build 0)  -->
<!DOCTYPE svg PUBLIC "-//W3C//DTD SVG 1.1//EN" "http://www.w3.org/Graphics/SVG/1.1/DTD/svg11.dtd">
<svg version="1.1" id="Layer_1" xmlns="http://www.w3.org/2000/svg" xmlns:xlink="http://www.w3.org/1999/xlink" x="0px" y="0px"
	 width="45.93px" height="45.93px" viewBox="0 0 45.93 45.93" enable-background="new 0 0 45.93 45.93" xml:space="preserve">
<rect x="0" y="0" fill="none" width="45.93" height="45.93"/>
<linearGradient id="SVGID_1_" gradientUnits="userSpaceOnUse" x1="36.886" y1="6.2185" x2="36.886" y2="45.6561">
	<stop  offset="0.0591" style="stop-color:#77002E"/>
	<stop  offset="0.6828" style="stop-color:#6D002E"/>
	<stop  offset="1" style="stop-color:#77002E"/>
</linearGradient>
<path fill="url(#SVGID_1_)" d="M40.45,42.56c-0.362,0-0.716-0.041-1.053-0.125c-0.94-0.234-1.671-0.705-2.231-1.436
	c-0.521-0.76-0.739-1.076-0.82-1.229l-0.016,0.01c-0.002-0.002-0.073-0.113-0.073-0.113l-6.174-8.83l-0.6-1.045
	c-0.164-0.35-0.677-1.561-0.677-3.008c0-1.836,0.796-3.296,2.369-4.348l0.682-0.414c1.756-1.042,3.629-2.361,3.629-4.846
	c0-2.155-1.196-3.891-3.049-4.423l-0.135-0.039V3.507l0.2,0.015c3.656,0.268,6.873,1.727,9.055,4.106
	c1.902,2.072,2.992,5.045,2.992,8.156v0.373c0,4.452-2.185,8.65-5.843,11.23l-0.093,0.068l0.052,0.1
	c0.21,0.422,2.005,2.928,3.315,4.758c0.833,1.162,1.493,2.084,1.662,2.348c0.906,1.227,1.318,2.707,1.321,3.627l-0.002,0.02
	l-0.072,0.734c-0.219,1.186-0.794,2.049-1.813,2.732C42.339,42.275,41.379,42.56,40.45,42.56L40.45,42.56z"/>
<linearGradient id="SVGID_2_" gradientUnits="userSpaceOnUse" x1="36.885" y1="6.5662" x2="36.885" y2="45.2237">
	<stop  offset="0.0108" style="stop-color:#C55C79"/>
	<stop  offset="0.3763" style="stop-color:#A60532"/>
	<stop  offset="0.6882" style="stop-color:#980530"/>
	<stop  offset="1" style="stop-color:#B80544"/>
</linearGradient>
<path fill="url(#SVGID_2_)" d="M40.45,42.189c-0.332,0-0.654-0.039-0.962-0.115c-0.857-0.213-1.52-0.639-2.027-1.301
	c0,0-0.798-1.16-0.82-1.195v0.002c-0.031-0.064-0.082-0.131-0.119-0.174l0.016,0.016l-6.151-8.797l-0.579-1.018
	c-0.142-0.305-0.629-1.451-0.629-2.822c0-1.703,0.741-3.062,2.205-4.039l0.667-0.403c1.329-0.79,3.808-2.261,3.808-5.165
	c0-2.273-1.244-4.117-3.182-4.739V3.908c3.526,0.3,6.499,1.671,8.608,3.972c1.839,2.005,2.894,4.885,2.894,7.904v0.373
	c0,4.331-2.124,8.416-5.684,10.928l-0.359,0.258l0.2,0.385c0.22,0.441,1.953,2.859,3.345,4.801c0.796,1.115,1.485,2.078,1.651,2.334
	c0.867,1.176,1.256,2.559,1.262,3.418l-0.071,0.725c-0.196,1.051-0.723,1.838-1.651,2.463C42.191,41.925,41.308,42.189,40.45,42.189
	L40.45,42.189z"/>
<linearGradient id="SVGID_3_" gradientUnits="userSpaceOnUse" x1="15.8308" y1="4.3923" x2="15.8308" y2="41.909">
	<stop  offset="0.0538" style="stop-color:#B55E13"/>
	<stop  offset="0.4785" style="stop-color:#A15100"/>
	<stop  offset="0.828" style="stop-color:#813100"/>
</linearGradient>
<path fill="url(#SVGID_3_)" d="M18.189,41.808l-0.008-15.316h0.008V16.48h0.003c-0.074-2.126-1.835-3.841-3.975-3.841
	c-2.149,0-3.907,1.711-3.982,3.841h0.004l0.005,0.188l-0.014,11.934l0.014,0.184v4.582h-0.016l-0.004,8.441H0.965V16.48h0.001
	C1.043,9.239,6.958,3.37,14.217,3.37c3.156,0,6.208,1.134,8.612,3.199c0.563-0.481,1.184-0.926,1.849-1.321l0.091-0.066
	c0.227-0.133,0.462-0.245,0.691-0.354c0.072-0.035,0.146-0.069,0.218-0.105c0.041-0.02,0.084-0.042,0.125-0.063
	c0.076-0.039,0.15-0.079,0.227-0.112c0.296-0.134,0.598-0.246,0.935-0.369c0.047-0.016,0.09-0.034,0.133-0.052
	c0.047-0.019,0.092-0.038,0.139-0.055l0.249-0.088v0.021c0.944-0.3,1.956-0.492,3.012-0.575l0.201-0.016v9.309l-0.146,0.034
	c-1.597,0.361-2.821,1.689-3.051,3.307v0.2c-0.006,0.062-0.012,0.104-0.019,0.146c-0.005,0.034-0.01,0.069-0.013,0.104l0.004,0.153
	l-0.012,9.951h-0.004l-0.009,15.189H18.189z"/>
<linearGradient id="SVGID_4_" gradientUnits="userSpaceOnUse" x1="15.8293" y1="6.7083" x2="15.8293" y2="44.5955">
	<stop  offset="0.0108" style="stop-color:#FACB7E"/>
	<stop  offset="0.3763" style="stop-color:#F7941E"/>
	<stop  offset="0.7312" style="stop-color:#F77C17"/>
	<stop  offset="1" style="stop-color:#FBB040"/>
</linearGradient>
<path fill="url(#SVGID_4_)" d="M18.56,41.435l-0.007-14.572l0.008-0.184v-9.827h0.045l-0.042-0.225l0.001-0.04
	c-0.02-2.383-1.971-4.319-4.35-4.319c-2.402,0-4.356,1.954-4.356,4.356c0,0.032,0.005,0.064,0.011,0.086L9.858,28.97h0.014v4.027
	l-0.017,0.184L9.85,41.435H1.337V16.852H1.38l-0.044-0.224C1.337,9.52,7.114,3.741,14.217,3.741c3.12,0,6.134,1.142,8.489,3.214
	l0.123,0.108l0.123-0.108c0.603-0.53,1.277-1.015,2.004-1.44l0.093-0.054V5.449c0.186-0.104,0.381-0.195,0.57-0.285
	c0.073-0.035,0.147-0.07,0.222-0.106c0.046-0.022,0.091-0.046,0.136-0.07c0.066-0.034,0.134-0.069,0.202-0.1
	c0.288-0.131,0.584-0.241,0.912-0.36c0.046-0.017,0.094-0.036,0.141-0.055l0.126-0.036c0.926-0.314,1.923-0.523,2.967-0.619v8.611
	c-1.679,0.441-2.954,1.869-3.193,3.597l-0.002,0.012v0.227c-0.004,0.019-0.008,0.055-0.014,0.092
	c-0.012,0.072-0.021,0.147-0.021,0.231v0.011l0.001,0.023l-0.001,0.032c0,0.022,0.003,0.043,0.008,0.06l-0.011,9.534l-0.006,0.186
	l-0.007,15.002H18.56z"/>
<linearGradient id="SVGID_5_" gradientUnits="userSpaceOnUse" x1="9.1716" y1="6.9744" x2="9.1716" y2="43.588">
	<stop  offset="0.0108" style="stop-color:#F77C17;stop-opacity:0.7"/>
	<stop  offset="1" style="stop-color:#F66600;stop-opacity:0.5"/>
</linearGradient>
<path opacity="0.6" fill="url(#SVGID_5_)" d="M13.344,11.222c-2.604,0-4.722,2.119-4.722,4.723c0,0.046,0.004,0.087,0.011,0.122
	L8.619,28.657h0.014v3.645l-0.016,0.186l-0.005,7.904H1.704v0.678h7.781l0.004-7.904l0.016-0.184v-3.645H9.491l0.013-12.592
	c-0.006-0.035-0.011-0.077-0.011-0.121c0-2.605,2.119-4.723,4.723-4.723c0.884,0,1.713,0.247,2.423,0.675
	C15.788,11.74,14.623,11.222,13.344,11.222z"/>
<linearGradient id="SVGID_6_" gradientUnits="userSpaceOnUse" x1="24.4417" y1="-0.3894" x2="24.4416" y2="42.9366">
	<stop  offset="0.0108" style="stop-color:#F77C17;stop-opacity:0.7"/>
	<stop  offset="1" style="stop-color:#F66600;stop-opacity:0.5"/>
</linearGradient>
<path opacity="0.6" fill="url(#SVGID_6_)" d="M29.085,4.365v7.111c-1.68,0.557-2.947,2.059-3.19,3.818l-0.004,0.026l-0.001,0.037
	v0.2l-0.01,0.064c-0.012,0.079-0.027,0.176-0.027,0.284l0.002,0.044l-0.002,0.023c0,0.032,0.004,0.066,0.009,0.099l-0.011,9.496
	l-0.004,0.176l-0.008,14.646h-6.913v0.678h7.785l0.007-14.646l0.005-0.176l0.011-9.494c-0.006-0.034-0.007-0.066-0.007-0.1v-0.024
	v-0.042c0-0.109,0.013-0.207,0.024-0.285l0.01-0.064v-0.2l0.004-0.038l0.001-0.024c0.246-1.761,1.512-3.263,3.19-3.818V4.226
	C29.661,4.261,29.371,4.311,29.085,4.365z"/>
<linearGradient id="SVGID_7_" gradientUnits="userSpaceOnUse" x1="26.6311" y1="4.1111" x2="26.6311" y2="7.8558">
	<stop  offset="0.0108" style="stop-color:#FFFFFF;stop-opacity:0.7"/>
	<stop  offset="0.1386" style="stop-color:#FFFDFB;stop-opacity:0.6096"/>
	<stop  offset="0.2704" style="stop-color:#FEF7EE;stop-opacity:0.5163"/>
	<stop  offset="0.404" style="stop-color:#FEEDDA;stop-opacity:0.4217"/>
	<stop  offset="0.5391" style="stop-color:#FDE0BD;stop-opacity:0.3261"/>
	<stop  offset="0.6751" style="stop-color:#FBCE98;stop-opacity:0.2299"/>
	<stop  offset="0.8121" style="stop-color:#FAB86A;stop-opacity:0.133"/>
	<stop  offset="0.9472" style="stop-color:#F89F35;stop-opacity:0.0374"/>
	<stop  offset="1" style="stop-color:#F7941E;stop-opacity:0"/>
</linearGradient>
<path fill="url(#SVGID_7_)" d="M23.505,7.436l0.124,0.107l0.123-0.107c0.603-0.53,1.277-1.015,2.004-1.44l0.092-0.054V5.929
	c0.186-0.102,0.38-0.195,0.57-0.285c0.073-0.034,0.148-0.07,0.221-0.105c0.046-0.023,0.092-0.047,0.137-0.07
	c0.065-0.034,0.134-0.07,0.201-0.101c0.289-0.13,0.584-0.24,0.912-0.36c0.047-0.017,0.095-0.035,0.141-0.054l0.127-0.036
	c0.687-0.234,1.412-0.407,2.167-0.521V3.818c-1.044,0.096-2.041,0.305-2.967,0.619l-0.126,0.036
	c-0.047,0.019-0.095,0.038-0.141,0.055c-0.328,0.119-0.624,0.229-0.912,0.36c-0.068,0.03-0.136,0.065-0.202,0.1
	c-0.045,0.024-0.09,0.048-0.136,0.07c-0.074,0.036-0.148,0.071-0.222,0.106c-0.189,0.09-0.385,0.182-0.57,0.285v0.012l-0.093,0.054
	c-0.727,0.426-1.401,0.91-2.004,1.44l-0.013,0.012C23.131,7.118,23.322,7.273,23.505,7.436z"/>
<linearGradient id="SVGID_8_" gradientUnits="userSpaceOnUse" x1="18.1179" y1="15.3738" x2="18.1179" y2="43.8065">
	<stop  offset="0.0108" style="stop-color:#FFFFFF;stop-opacity:0.8"/>
	<stop  offset="1" style="stop-color:#F7941E;stop-opacity:0.4"/>
</linearGradient>
<path opacity="0.8" fill="url(#SVGID_8_)" d="M19.353,27.341l0.007-0.184v-9.824h0.046l-0.042-0.228l0.001-0.038
	c-0.015-1.735-1.054-3.233-2.537-3.92c1.044,0.789,1.725,2.037,1.737,3.439l-0.001,0.04l0.042,0.225h-0.045v9.827l-0.008,0.184
	l0.007,14.572h0.8L19.353,27.341z"/>
<linearGradient id="SVGID_9_" gradientUnits="userSpaceOnUse" x1="32.6106" y1="3.5159" x2="37.6122" y2="9.4212">
	<stop  offset="0.0108" style="stop-color:#FFFFFF"/>
	<stop  offset="1" style="stop-color:#DD9FB1;stop-opacity:0"/>
</linearGradient>
<path fill="url(#SVGID_9_)" d="M32.676,3.908v5.227c3.259-0.576,5.83-1.453,7.272-2.496C37.99,5.085,35.512,4.15,32.676,3.908z"/>
<linearGradient id="SVGID_10_" gradientUnits="userSpaceOnUse" x1="35.8928" y1="4.4563" x2="35.8928" y2="13.3785">
	<stop  offset="0.0108" style="stop-color:#FFFFFF"/>
	<stop  offset="1" style="stop-color:#A60532;stop-opacity:0.2"/>
</linearGradient>
<path opacity="0.7" fill="url(#SVGID_10_)" d="M33.476,4.388c2.095,0.179,3.994,0.738,5.633,1.644
	c-1.81-1.191-3.986-1.915-6.433-2.123v8.529c0.281,0.091,0.549,0.211,0.8,0.35V4.388z"/>
<linearGradient id="SVGID_11_" gradientUnits="userSpaceOnUse" x1="18.4529" y1="2.0969" x2="18.4529" y2="10.4635">
	<stop  offset="0.2219" style="stop-color:#FFFFFF"/>
	<stop  offset="0.4398" style="stop-color:#FEF8F1;stop-opacity:0.7935"/>
	<stop  offset="1" style="stop-color:#FAC17D;stop-opacity:0.2"/>
</linearGradient>
<path fill="url(#SVGID_11_)" d="M27.231,4.473c-0.047,0.019-0.095,0.038-0.141,0.055c-0.328,0.119-0.624,0.229-0.912,0.36
	c-0.068,0.03-0.136,0.065-0.202,0.1c-0.045,0.024-0.09,0.048-0.136,0.07c-0.074,0.036-0.148,0.071-0.222,0.106
	c-0.189,0.09-0.385,0.182-0.57,0.285v0.012l-0.093,0.054c-0.727,0.426-1.401,0.91-2.004,1.44l-0.123,0.108l-0.123-0.108
	c-2.354-2.072-5.369-3.214-8.489-3.214c-2.856,0-5.497,0.936-7.634,2.515c2.263,2.102,8.981,3.626,16.919,3.626
	c2.418,0,4.722-0.141,6.822-0.397V3.818c-1.044,0.096-2.041,0.305-2.967,0.619L27.231,4.473z"/>
<linearGradient id="SVGID_12_" gradientUnits="userSpaceOnUse" x1="11.2688" y1="6.7083" x2="11.2688" y2="44.5955">
	<stop  offset="0.0108" style="stop-color:#FFFFFF;stop-opacity:0.8"/>
	<stop  offset="1" style="stop-color:#F7941E;stop-opacity:0.3"/>
</linearGradient>
<path opacity="0.8" fill="url(#SVGID_12_)" d="M1.337,41.435h0.8V17.333h0.042l-0.044-0.225C2.137,10,7.914,4.221,15.016,4.221
	c2.176,0,4.3,0.557,6.186,1.597c-2.074-1.348-4.496-2.076-6.985-2.076c-7.103,0-12.879,5.778-12.881,12.887l0.044,0.224H1.337
	V41.435z"/>
<linearGradient id="SVGID_13_" gradientUnits="userSpaceOnUse" x1="27.8176" y1="23.9924" x2="37.8791" y2="32.5003">
	<stop  offset="0.0376" style="stop-color:#57002E;stop-opacity:0.4"/>
	<stop  offset="0.6882" style="stop-color:#A60532;stop-opacity:0"/>
</linearGradient>
<path fill="url(#SVGID_13_)" d="M44.522,39.005l0.071-0.725c-0.006-0.859-0.395-2.242-1.262-3.418
	c-0.166-0.256-0.855-1.219-1.651-2.334c-1.392-1.941-3.125-4.359-3.345-4.801l-0.2-0.385l0.359-0.258
	c0.598-0.422,1.153-0.889,1.666-1.393c-2.277-1.432-5.028-2.582-8.101-3.356c-0.003,0.001-0.007,0.004-0.01,0.006l-0.667,0.403
	c-1.464,0.978-2.205,2.336-2.205,4.039c0,1.371,0.487,2.518,0.629,2.822l0.579,1.018l6.151,8.797l-0.016-0.016
	c0.037,0.043,0.088,0.109,0.119,0.174v-0.002c0.022,0.035,0.82,1.195,0.82,1.195c0.508,0.662,1.17,1.088,2.027,1.301
	c0.308,0.076,0.63,0.115,0.962,0.115l0,0c0.857,0,1.74-0.264,2.42-0.721C43.799,40.843,44.325,40.056,44.522,39.005z"/>
<linearGradient id="SVGID_14_" gradientUnits="userSpaceOnUse" x1="32.6565" y1="35.6965" x2="39.5004" y2="30.1969">
	<stop  offset="0.1446" style="stop-color:#F7941E;stop-opacity:0.3"/>
	<stop  offset="1" style="stop-color:#A60532;stop-opacity:0"/>
</linearGradient>
<path fill="url(#SVGID_14_)" d="M44.522,39.005l0.071-0.725c-0.006-0.859-0.395-2.242-1.262-3.418
	c-0.166-0.256-0.855-1.219-1.651-2.334c-1.392-1.941-3.125-4.359-3.345-4.801l-0.2-0.385l0.359-0.258
	c0.598-0.422,1.153-0.889,1.666-1.393c-2.277-1.432-5.028-2.582-8.101-3.356c-0.003,0.001-0.007,0.004-0.01,0.006l-0.667,0.403
	c-1.464,0.978-2.205,2.336-2.205,4.039c0,1.371,0.487,2.518,0.629,2.822l0.579,1.018l6.151,8.797l-0.016-0.016
	c0.037,0.043,0.088,0.109,0.119,0.174v-0.002c0.022,0.035,0.82,1.195,0.82,1.195c0.508,0.662,1.17,1.088,2.027,1.301
	c0.308,0.076,0.63,0.115,0.962,0.115l0,0c0.857,0,1.74-0.264,2.42-0.721C43.799,40.843,44.325,40.056,44.522,39.005z"/>
<linearGradient id="SVGID_15_" gradientUnits="userSpaceOnUse" x1="45.8059" y1="50.6331" x2="35.7532" y2="3.7888">
	<stop  offset="0.0108" style="stop-color:#88002E"/>
	<stop  offset="1" style="stop-color:#A60532;stop-opacity:0.5"/>
</linearGradient>
<path opacity="0.6" fill="url(#SVGID_15_)" d="M43.035,35.079l-0.013-0.02c-0.16-0.248-0.844-1.205-1.643-2.318l-0.016-0.021
	c-1.771-2.471-3.143-4.396-3.354-4.824l-0.345-0.666l0.615-0.443c3.464-2.445,5.531-6.416,5.531-10.629v-0.373
	c0-2.928-1.021-5.719-2.798-7.656c-0.548-0.597-1.157-1.127-1.821-1.593c0.333,0.286,0.649,0.59,0.948,0.915
	c1.778,1.937,2.798,4.728,2.798,7.656v0.373c0,4.211-2.067,8.185-5.529,10.627l-0.617,0.443l0.345,0.666
	c0.214,0.43,1.585,2.355,3.355,4.826l0.016,0.021c0.797,1.113,1.482,2.07,1.642,2.318l0.014,0.02
	c0.809,1.098,1.179,2.385,1.189,3.184l-0.066,0.689c-0.181,0.943-0.656,1.646-1.493,2.211c-0.621,0.416-1.429,0.656-2.214,0.656
	c-0.306,0-0.599-0.033-0.877-0.104c-0.286-0.07-0.548-0.166-0.788-0.293c0.433,0.482,0.978,0.803,1.66,0.973
	c0.278,0.068,0.572,0.102,0.875,0.102c0.787,0,1.595-0.238,2.216-0.658c0.838-0.563,1.313-1.266,1.491-2.207l0.069-0.691
	C44.216,37.464,43.845,36.177,43.035,35.079z"/>
<linearGradient id="SVGID_16_" gradientUnits="userSpaceOnUse" x1="34.0159" y1="15.1213" x2="34.0159" y2="44.139">
	<stop  offset="0.0161" style="stop-color:#F3DEE4;stop-opacity:0.7"/>
	<stop  offset="1" style="stop-color:#A60532;stop-opacity:0.2"/>
</linearGradient>
<path fill="url(#SVGID_16_)" d="M38.262,41.253c0,0-0.798-1.162-0.82-1.195v0.004c-0.032-0.066-0.082-0.135-0.12-0.176l0.017,0.016
	l-6.152-8.797l-0.579-1.018c-0.142-0.307-0.63-1.453-0.63-2.822c0-1.703,0.742-3.061,2.207-4.04l0.665-0.402
	c1.33-0.79,3.81-2.261,3.81-5.166c0-2.061-1.026-3.767-2.661-4.53c1.163,0.888,1.86,2.349,1.86,4.051
	c0,2.904-2.479,4.375-3.808,5.165l-0.667,0.403c-1.464,0.978-2.205,2.336-2.205,4.039c0,1.371,0.487,2.518,0.629,2.822l0.579,1.018
	l6.151,8.797l-0.016-0.016c0.037,0.043,0.088,0.109,0.119,0.174v-0.002c0.022,0.035,0.82,1.195,0.82,1.195
	c0.374,0.49,0.835,0.85,1.394,1.088C38.638,41.685,38.44,41.486,38.262,41.253z"/>
<linearGradient id="SVGID_17_" gradientUnits="userSpaceOnUse" x1="22.824" y1="18.5417" x2="22.824" y2="33.3475">
	<stop  offset="0.2261" style="stop-color:#DB4000;stop-opacity:0.2"/>
	<stop  offset="1" style="stop-color:#F77C17;stop-opacity:0"/>
</linearGradient>
<path opacity="0.8" fill="url(#SVGID_17_)" d="M22.823,21.22c-1.454,0-2.879,0.078-4.262,0.229v5.23l-0.008,0.184l0.007,14.572
	h8.518l0.007-15.002l0.006-0.186l0.006-4.798C25.708,21.3,24.281,21.22,22.823,21.22z"/>
<linearGradient id="SVGID_18_" gradientUnits="userSpaceOnUse" x1="27.3752" y1="35.467" x2="22.302" y2="30.9765">
	<stop  offset="0.0806" style="stop-color:#C90532;stop-opacity:0.2"/>
	<stop  offset="1" style="stop-color:#F7941E;stop-opacity:0"/>
</linearGradient>
<path fill="url(#SVGID_18_)" d="M22.823,21.22c-1.454,0-2.879,0.078-4.262,0.229v5.23l-0.008,0.184l0.007,14.572h8.518l0.007-15.002
	l0.006-0.186l0.006-4.798C25.708,21.3,24.281,21.22,22.823,21.22z"/>
<linearGradient id="SVGID_19_" gradientUnits="userSpaceOnUse" x1="5.6042" y1="21.803" x2="5.6042" y2="35.4322">
	<stop  offset="0.2261" style="stop-color:#DB4000;stop-opacity:0.2"/>
	<stop  offset="1" style="stop-color:#F77C17;stop-opacity:0"/>
</linearGradient>
<path opacity="0.8" fill="url(#SVGID_19_)" d="M9.855,33.181l0.017-0.184V28.97H9.858l0.006-5.454
	c-3.609,1.399-6.564,3.368-8.527,5.698v12.221H9.85L9.855,33.181z"/>
</svg>
